<svg width="65" height="65" viewBox="0 0 65 65" fill="none" xmlns="http://www.w3.org/2000/svg">
<path d="M63.7279 39.9431H60.9371C60.2481 39.5793 58.5408 38.7793 56.2121 38.3866C53.5642 37.9404 49.5845 37.954 45.376 40.4123C45.587 39.8261 45.7495 39.2236 45.8621 38.6108C46.0842 37.4064 46.1076 36.1712 45.9314 34.9387C45.5432 32.235 44.2248 29.8128 42.1936 28.0278C42.6151 26.8234 42.8299 25.5564 42.8289 24.2803C42.8289 19.5072 39.863 15.2674 35.4137 13.619L30.2626 7.78749C28.7297 6.05216 26.5261 5.11969 24.2111 5.22748L6.25384 6.06905L1.95063 3.35479C1.7582 3.23343 1.53674 3.1659 1.30934 3.15924C1.08193 3.15257 0.856897 3.20702 0.657687 3.3169C0.458476 3.42678 0.29238 3.58807 0.176704 3.78397C0.0610286 3.97987 7.70206e-06 4.20321 0 4.43072L0 20.21C0 20.7434 0.332744 21.2201 0.833574 21.404L5.13665 22.9844C5.85394 23.7351 8.14633 25.9536 10.9389 26.8114C13.4043 27.5688 15.6123 27.4295 17.1422 27.1317L21.0297 28.8084C21.7043 30.3594 22.71 31.7135 23.9444 32.7983C23.3414 34.5218 23.1626 36.3652 23.423 38.1724C23.8551 41.1784 25.432 43.8365 27.8634 45.6568C29.6033 46.9596 31.6315 47.7215 33.7458 47.8911C33.2274 48.6609 32.9695 49.5912 33.0285 50.5268L24.6863 49.553C24.6587 49.5499 24.631 49.5475 24.6033 49.5461C21.5552 49.3923 20.1996 51.4591 19.9047 52.5923C19.2673 54.8735 20.4153 57.0857 22.6394 57.8572C22.6761 57.8699 22.7133 57.8809 22.7511 57.8902L36.8483 61.3735C36.8608 61.3766 36.8735 61.3796 36.8861 61.3821C38.3022 61.6869 39.7465 61.8407 41.195 61.841C43.6592 61.841 46.1131 61.3945 48.4466 60.5104C49.1034 60.2613 49.4343 59.527 49.1853 58.87C48.9361 58.2129 48.2019 57.8827 47.545 58.1313C44.3206 59.3557 40.8112 59.6222 37.4389 58.8989L23.424 55.4359C22.4986 55.0914 22.0803 54.2462 22.3571 53.2691C22.3604 53.257 22.3637 53.245 22.3667 53.2328C22.3792 53.1826 22.6936 52.0124 24.4354 52.085L34.2502 53.2305C35.3185 54.301 36.9222 54.7439 38.4734 54.2585C38.5313 54.2405 46.0611 50.6451 46.0611 50.6451C46.6949 50.342 46.9631 49.5826 46.66 48.9489C46.3569 48.315 45.5974 48.0465 44.9637 48.35L37.6386 51.8523C36.7965 52.0739 35.9333 51.6158 35.6493 50.783C35.3992 50.0501 35.699 49.2276 36.3619 48.8274L46.1153 42.9389C46.1242 42.9336 46.1331 42.9281 46.1417 42.9225C49.1187 41.0246 52.3307 40.337 55.6898 40.8785C58.2408 41.2898 59.9327 42.2928 59.946 42.3008C60.1454 42.4223 60.3743 42.4866 60.6078 42.4866H62.4556V51.4663H60.6078C60.398 51.4663 60.1914 51.5183 60.0064 51.6175L57.6258 52.8948C57.0066 53.2268 56.7742 53.998 57.1063 54.6171C57.1852 54.7643 57.2924 54.8945 57.4217 55.0003C57.551 55.1061 57.6998 55.1854 57.8598 55.2337C58.0197 55.2819 58.1876 55.2982 58.3538 55.2815C58.5201 55.2648 58.6814 55.2156 58.8286 55.1366L60.9275 54.0105H63.7277C64.4301 54.0105 64.9997 53.441 64.9997 52.7384V41.2146C65 40.5126 64.4305 39.9431 63.7279 39.9431ZM16.9894 24.5638C15.7626 24.8459 13.8467 25.0432 11.6859 24.3794C9.07029 23.5761 6.83757 21.079 6.81662 21.0552C6.67656 20.8962 6.49905 20.7747 6.30018 20.7015L2.54401 19.3219V6.73695L5.23517 8.43431C5.45549 8.5732 5.71311 8.64117 5.97327 8.62906L24.3302 7.7687C25.8671 7.69506 27.3361 8.31726 28.3557 9.47165L31.3946 12.9118C27.7142 12.9326 24.3033 14.7293 22.1969 17.6861L20.9883 16.8749L20.9881 15.2184C20.9881 14.516 20.4186 13.9465 19.7159 13.9465C19.0135 13.9465 18.444 14.516 18.444 15.2187L18.4441 17.5531C18.4441 17.977 18.6553 18.3728 19.0072 18.6091C19.0072 18.6091 28.6102 25.0546 28.6312 25.0671C29.4951 25.5773 29.7489 26.7736 29.4401 27.5193C29.2903 27.8742 29.0392 28.177 28.7181 28.3898C28.397 28.6025 28.0202 28.7158 27.635 28.7153C27.3925 28.7153 27.1521 28.6697 26.9264 28.5811L17.7781 24.6354C17.5296 24.5281 17.2532 24.503 16.9894 24.5638ZM25.9372 30.9249L25.9697 30.9385C26.4993 31.1505 27.0645 31.2594 27.635 31.2592C29.448 31.2592 31.0762 30.1804 31.7866 28.5019C32.6263 26.4752 31.8237 24.0219 29.9594 22.8969L24.3096 19.1043C25.9579 16.8296 28.607 15.4546 31.4592 15.4546C32.4241 15.4546 33.3705 15.6083 34.2725 15.9117C37.8686 17.1204 40.2848 20.4834 40.2848 24.2802C40.2848 29.1467 36.3256 33.1059 31.4591 33.1059C29.1737 33.1059 27.0185 32.207 25.4099 30.6976L25.9372 30.9249ZM25.9412 37.8106C25.7734 36.6442 25.8408 35.4559 26.1393 34.3159C27.749 35.172 29.5694 35.65 31.4594 35.65C35.4682 35.65 38.9987 33.5644 41.0238 30.4216C42.31 31.7472 43.1457 33.4377 43.413 35.2996C43.5501 36.2577 43.5324 37.2165 43.36 38.1507C42.6761 41.8819 39.6911 44.7517 35.9322 45.2916C33.5989 45.6268 31.2753 45.0336 29.388 43.6206C27.5007 42.2073 26.2765 40.144 25.9412 37.8106Z" fill="#22253C"/>
<path d="M52.5613 55.5718C51.9364 55.8897 51.6876 56.6538 52.0055 57.2785C52.3234 57.9034 53.0875 58.1522 53.7122 57.8343C54.337 57.5165 54.5859 56.7523 54.268 56.1276C53.9503 55.5029 53.1861 55.254 52.5613 55.5718Z" fill="#22253C"/>
</svg>
