<svg width="65" height="65" viewBox="0 0 65 65" fill="none" xmlns="http://www.w3.org/2000/svg">
<g clip-path="url(#clip0_135_2476)">
<path d="M19.834 12.21C20.5351 12.21 21.1035 11.6416 21.1035 10.9404C21.1035 10.2393 20.5351 9.6709 19.834 9.6709C19.1328 9.6709 18.5645 10.2393 18.5645 10.9404C18.5645 11.6416 19.1328 12.21 19.834 12.21Z" fill="#22253C"/>
<path d="M60.1015 14.8009H39.1643C37.8994 11.4747 34.112 9.68481 31.0471 9.68481H25.5357C24.8332 9.68481 24.2637 10.2543 24.2637 10.9569C24.2637 11.6593 24.8332 12.2289 25.5357 12.2289H31.0471C32.9431 12.2289 35.1754 13.1707 36.3072 14.801H23.311C20.61 14.801 18.4125 16.9501 18.4125 19.5915V22.6177C18.4125 23.0512 18.6438 23.4686 19.0119 23.6976L32.6365 32.1879L32.6624 32.2036C33.7473 32.8442 34.0538 34.2943 33.6631 35.2374C33.4177 35.819 32.9549 36.2818 32.3732 36.527C31.7916 36.7723 31.1371 36.7807 30.5494 36.5504L20.0817 32.0354C19.833 31.9282 19.5567 31.9032 19.2928 31.9638C17.8675 32.2914 15.6416 32.5206 13.1311 31.7494C10.0878 30.8148 7.50191 27.9205 7.47728 27.8926C7.33722 27.7335 7.15972 27.612 6.96084 27.5389L2.54414 25.9168V10.659L6.09438 12.1318C6.24889 12.1958 6.41456 12.2288 6.58176 12.2288H14.1319C14.8345 12.2288 15.404 11.6593 15.404 10.9568C15.404 10.2543 14.8345 9.68468 14.1319 9.68468H6.83516L1.75944 7.57942C1.56615 7.49929 1.35608 7.46807 1.14784 7.48851C0.939594 7.50895 0.739604 7.58042 0.565576 7.6966C0.39156 7.81278 0.248898 7.9701 0.150241 8.15461C0.0515832 8.33913 -2.2279e-05 8.54513 7.2153e-09 8.75437L7.2153e-09 26.8047C7.2153e-09 27.3381 0.332744 27.8149 0.833574 27.9987L5.79592 29.8211C6.56944 30.6361 9.18887 33.1998 12.3842 34.1812C14.6801 34.8864 16.778 34.9033 18.4125 34.6989V43.3168C18.4125 45.9582 20.61 48.1073 23.311 48.1073H40.788C41.2603 51.8297 43.5902 54.8773 47.7351 57.1801C48.1374 57.4025 48.5897 57.5187 49.0494 57.518C49.5037 57.518 49.9582 57.4053 50.3634 57.1801C54.5086 54.8773 56.8386 51.8297 57.3107 48.1073H60.1015C62.8026 48.1073 65 45.9582 65 43.3168V19.5913C65 16.95 62.8026 14.8009 60.1015 14.8009ZM54.8582 46.6596C54.8582 50.1003 52.9839 52.8141 49.1279 54.9563C49.086 54.9797 49.0127 54.9794 48.9708 54.9563C45.115 52.8141 43.2406 50.1003 43.2406 46.6596V41.2702C43.5416 41.3057 43.8461 41.3234 44.1533 41.3234C45.9379 41.3234 47.7086 40.5901 49.0495 39.3458C50.3904 40.59 52.1611 41.3234 53.9457 41.3234C54.2529 41.3234 54.5575 41.3057 54.8585 41.2702V46.6596H54.8582ZM62.456 43.3168C62.456 44.5555 61.3999 45.5633 60.1015 45.5633H57.4022V39.67C57.4022 39.4655 57.3528 39.264 57.2583 39.0826C57.1638 38.9012 57.0269 38.7453 56.8594 38.628C56.6918 38.5108 56.4984 38.4356 56.2956 38.409C56.0929 38.3823 55.8866 38.405 55.6945 38.475C55.1404 38.677 54.5519 38.7794 53.9454 38.7794C52.1785 38.7794 50.7989 37.7037 50.097 36.6973C49.8591 36.3561 49.4609 36.1528 49.045 36.1528C48.6291 36.1528 48.2395 36.3561 48.0016 36.6973C47.2998 37.7039 45.9202 38.7794 44.1532 38.7794C43.5466 38.7794 42.9581 38.6771 42.4041 38.475C42.2119 38.4049 42.0057 38.3822 41.8029 38.4089C41.6001 38.4355 41.4067 38.5106 41.2391 38.6279C41.0715 38.7451 40.9347 38.9011 40.8402 39.0825C40.7457 39.2639 40.6964 39.4655 40.6964 39.67V45.5633H23.3109C22.0125 45.5633 20.9564 44.5557 20.9564 43.3168V35.1831L29.5596 38.8938C29.5706 38.8985 29.5815 38.9029 29.5925 38.9075C30.1768 39.1413 30.8003 39.2613 31.4295 39.2612C33.4298 39.2612 35.2262 38.0709 36.0096 36.2199C36.9242 34.0122 36.0092 31.2354 33.9699 30.0209L20.9564 21.9117V19.5913C20.9564 18.3527 22.0125 17.3449 23.3109 17.3449H60.1015C61.3999 17.3449 62.456 18.3525 62.456 19.5913V43.3168Z" fill="#22253C"/>
<path d="M57.7748 28.0386H46.2891C45.239 28.0386 44.3848 27.1843 44.3848 26.1343V22.3257C44.3848 21.2757 45.239 20.4214 46.2891 20.4214H57.7748C58.8248 20.4214 59.6791 21.2757 59.6791 22.3257V26.1343C59.6791 27.1844 58.8248 28.0386 57.7748 28.0386ZM46.9238 25.4995H57.14V22.9604H46.9238V25.4995Z" fill="#22253C"/>
</g>
<defs>
<clipPath id="clip0_135_2476">
<rect width="65" height="65" fill="white"/>
</clipPath>
</defs>
</svg>
