<svg width="22" height="22" viewBox="0 0 22 22" fill="none" xmlns="http://www.w3.org/2000/svg">
<path d="M20.3613 4.98128L14.4372 10.8672L20.3613 16.7531C20.4684 16.5293 20.5333 16.2818 20.5333 16.0176V5.7168C20.5333 5.45252 20.4684 5.20512 20.3613 4.98128ZM18.8165 4H2.7168C2.45252 4 2.20512 4.06497 1.98128 4.17206L9.55285 11.7055C10.2223 12.375 11.311 12.375 11.9805 11.7055L19.552 4.17206C19.3282 4.06497 19.0808 4 18.8165 4ZM1.17206 4.98128C1.06497 5.20512 1 5.45252 1 5.7168V16.0176C1 16.2818 1.06497 16.5293 1.17206 16.7531L7.09612 10.8672L1.17206 4.98128Z" fill="#4466B6"/>
<path d="M13.6272 11.6766L12.7889 12.5149C11.6734 13.6304 9.85828 13.6304 8.74278 12.5149L7.90452 11.6766L1.98047 17.5625C2.2043 17.6696 2.45171 17.7346 2.71598 17.7346H18.8157C19.08 17.7346 19.3274 17.6696 19.5512 17.5625L13.6272 11.6766Z" fill="#4466B6"/>
</svg>
