<svg width="23" height="22" viewBox="0 0 23 22" fill="none" xmlns="http://www.w3.org/2000/svg">
<path fill-rule="evenodd" clip-rule="evenodd" d="M19.6705 17.3329C19.551 17.452 19.4068 17.6044 19.254 17.7655C18.8727 18.1703 18.3962 18.6734 18.0976 18.8775C16.5266 19.9511 14.4248 19.4374 12.938 18.8179C10.9768 18.0007 8.84153 16.4944 6.9243 14.5768C5.00528 12.6591 3.49919 10.523 2.68202 8.56281C2.06329 7.07569 1.54852 4.97333 2.62225 3.40183C2.82615 3.103 3.33044 2.62729 3.73465 2.24518C3.89636 2.09281 4.04753 1.94884 4.16705 1.8297C4.37926 1.61854 4.66643 1.5 4.96578 1.5C5.26514 1.5 5.55231 1.61854 5.76452 1.8297L8.65521 4.71971C8.86624 4.93191 8.9847 5.21902 8.9847 5.5183C8.9847 5.81759 8.86624 6.1047 8.65521 6.3169L7.86775 7.10283C7.60476 7.3639 7.4331 7.70292 7.37832 8.06943C7.32353 8.43594 7.38855 8.81034 7.56369 9.13691C8.6468 11.1813 10.3189 12.8532 12.3634 13.936C12.6898 14.1111 13.0642 14.1761 13.4305 14.1212C13.7969 14.0663 14.1358 13.8945 14.3966 13.6315L15.1822 12.8455C15.3944 12.6343 15.6815 12.5158 15.9809 12.5158C16.2802 12.5158 16.5674 12.6343 16.7796 12.8455L19.6705 15.736C19.8815 15.9481 20 16.2352 20 16.5344C20 16.8337 19.8815 17.1207 19.6705 17.3329Z" fill="#4466B6"/>
</svg>
